<svg width="36" height="36" viewBox="0 0 36 36" fill="none" xmlns="http://www.w3.org/2000/svg">
<path d="M29.34 14.505H28.005V13.215L27.69 12.99C24.9204 10.7856 21.4744 9.60539 17.9348 9.64912C14.3952 9.69285 10.9794 10.9578 8.26504 13.23L8.01004 13.5V14.55H6.66004C5.73311 14.55 4.84414 14.9182 4.1887 15.5737C3.53326 16.2291 3.16504 17.1181 3.16504 18.045C3.16504 18.9719 3.53326 19.8609 4.1887 20.5163C4.84414 21.1718 5.73311 21.54 6.66004 21.54H7.99504V22.83L8.31004 23.055C11.0674 25.1747 14.4327 26.3525 17.91 26.415C21.4907 26.3357 24.9448 25.0754 27.735 22.83L28.005 22.605V21.54H29.355C30.282 21.54 31.1709 21.1718 31.8264 20.5163C32.4818 19.8609 32.85 18.9719 32.85 18.045C32.85 17.1181 32.4818 16.2291 31.8264 15.5737C31.1709 14.9182 30.282 14.55 29.355 14.55L29.34 14.505ZM7.99504 19.995H6.66004C6.10947 20.0153 5.57323 19.8169 5.1685 19.4431C4.76377 19.0693 4.52345 18.5505 4.50004 18C4.52345 17.4496 4.76377 16.9307 5.1685 16.5569C5.57323 16.1831 6.10947 15.9847 6.66004 16.005H7.99504V19.995ZM26.49 21.825C24.0825 23.7447 21.1026 24.8051 18.0235 24.8377C14.9444 24.8703 11.9427 23.8733 9.49504 22.005V14.175C11.9061 12.2565 14.8881 11.1971 17.9691 11.1645C21.0501 11.1319 24.054 12.128 26.505 13.995L26.49 21.825ZM29.34 19.995H28.005V16.005H29.34C29.8906 15.9847 30.4268 16.1831 30.8316 16.5569C31.2363 16.9307 31.4766 17.4496 31.5 18C31.4766 18.5505 31.2363 19.0693 30.8316 19.4431C30.4268 19.8169 29.8906 20.0153 29.34 19.995Z" fill="#262626"/>
<path d="M26.5 7L10 29.5" stroke="#262626" stroke-width="1.5" stroke-linecap="round"/>
</svg>
