<svg width="36" height="36" viewBox="0 0 36 36" fill="none" xmlns="http://www.w3.org/2000/svg">
<path d="M17.9999 30.7649C20.5203 30.7619 22.9833 30.012 25.0777 28.6099C27.1722 27.2078 28.804 25.2163 29.7672 22.8872C30.7303 20.558 30.9816 17.9957 30.4891 15.5238C29.9967 13.052 28.7827 10.7815 27.0005 8.99929C25.2183 7.21707 22.9478 6.00306 20.4759 5.51062C18.0041 5.01818 15.4417 5.26941 13.1126 6.23256C10.7834 7.19572 8.792 8.82759 7.38987 10.922C5.98775 13.0164 5.23783 15.4795 5.23486 17.9999C5.23486 21.3854 6.57974 24.6322 8.97364 27.0261C11.3675 29.42 14.6144 30.7649 17.9999 30.7649ZM17.9999 6.76489C20.2249 6.76786 22.3991 7.43056 24.2475 8.66919C26.0959 9.90782 27.5355 11.6668 28.3842 13.7236C29.233 15.7804 29.4527 18.0427 29.0158 20.2244C28.5788 22.4061 27.5046 24.4092 25.9292 25.9804C24.3538 27.5517 22.3478 28.6205 20.1649 29.0516C17.982 29.4828 15.7203 29.257 13.6658 28.4028C11.6113 27.5486 9.8562 26.1043 8.6225 24.2526C7.3888 22.4009 6.7319 20.2249 6.73486 17.9999C6.74281 15.0174 7.93316 12.1598 10.0449 10.0537C12.1566 7.9476 15.0174 6.76488 17.9999 6.76489Z" fill="#262626"/>
<path d="M13.4399 17.2351C14.2684 17.2351 14.9399 16.5635 14.9399 15.7351C14.9399 14.9067 14.2684 14.2351 13.4399 14.2351C12.6115 14.2351 11.9399 14.9067 11.9399 15.7351C11.9399 16.5635 12.6115 17.2351 13.4399 17.2351Z" fill="#262626"/>
<path d="M22.4849 17.2351C23.3133 17.2351 23.9849 16.5635 23.9849 15.7351C23.9849 14.9067 23.3133 14.2351 22.4849 14.2351C21.6564 14.2351 20.9849 14.9067 20.9849 15.7351C20.9849 16.5635 21.6564 17.2351 22.4849 17.2351Z" fill="#262626"/>
<path d="M24.5402 21.5249L23.4302 20.5049C20.0852 24.1199 15.9302 24.1199 12.5402 20.5049L11.4302 21.5249C12.2369 22.4954 13.2387 23.2854 14.3706 23.8436C15.5025 24.4018 16.7391 24.7157 18.0002 24.7649C19.2561 24.7115 20.4869 24.3956 21.6133 23.8376C22.7398 23.2795 23.7368 22.4917 24.5402 21.5249Z" fill="#262626"/>
</svg>
