<svg width="192" height="200" viewBox="0 0 192 200" fill="none" xmlns="http://www.w3.org/2000/svg">
<path d="M96 200C149.019 200 192 155.228 192 100C192 44.7715 149.019 0 96 0C42.9807 0 0 44.7715 0 100C0 155.228 42.9807 200 96 200Z" fill="#4588F7"/>
<path d="M119.2 126.867L120.48 102.633H71.4878L72.2878 118.2L118.144 126.833L119.2 126.867Z" fill="#F9D6CF"/>
<path d="M72.3198 118.2L72.7678 126.867L73.5678 126.667L95.9998 141.4L118.176 126.833L72.3198 118.2Z" fill="#FBE6E3"/>
<path d="M95.8717 30.6667C87.9103 30.6931 80.2822 33.9992 74.6525 39.8634C69.0229 45.7276 65.849 53.6736 65.8237 61.9667V66.9334H125.92V61.9667C125.894 53.6736 122.721 45.7276 117.091 39.8634C111.461 33.9992 103.833 30.6931 95.8717 30.6667Z" fill="#000444"/>
<path d="M71.552 103.067C74.3267 107.089 77.9781 110.367 82.2059 112.633C86.4338 114.898 91.1174 116.087 95.872 116.1C100.706 116.109 105.471 114.901 109.761 112.58C114.051 110.258 117.739 106.892 120.512 102.767C123.758 97.9176 125.612 92.2062 125.856 86.3001C125.856 85.8334 125.856 85.4001 125.856 84.9334V60.4001H99.328C92.928 60.4001 87.392 58.9668 86.048 52.6001H81.216C77.122 52.6176 73.2004 54.3195 70.3055 57.3351C67.4106 60.3506 65.7768 64.4355 65.76 68.7001C64.4647 68.5415 63.1525 68.7522 61.9632 69.3099C60.774 69.8677 59.7526 70.7514 59.008 71.8668C58.0348 73.1923 57.4345 74.7736 57.2743 76.434C57.1141 78.0944 57.4001 79.7685 58.1006 81.2693C58.8011 82.7701 59.8883 84.0385 61.2409 84.9328C62.5935 85.827 64.1581 86.312 65.76 86.3334C66.0283 92.421 67.9969 98.2945 71.424 103.233" fill="#FBE6E3"/>
<path d="M125.856 86.1668H126.24C128.483 86.1668 130.636 85.2407 132.225 83.5913C133.814 81.942 134.712 79.7037 134.72 77.3668C134.72 75.024 133.827 72.7772 132.236 71.1207C130.646 69.4641 128.489 68.5334 126.24 68.5334H125.92C125.92 68.5334 125.856 85.7001 125.856 86.1668Z" fill="#F9D6CF"/>
<path d="M129.152 129.933L121.664 154.467L96.0639 141.4L70.4639 154.467L62.9759 129.933L60.2559 130.9C60.2559 130.9 63.4559 187.2 63.9999 194.233C74.272 198.045 85.0953 199.996 95.9998 200C106.904 199.995 117.728 198.045 128 194.233C128.416 187.167 131.744 130.9 131.744 130.9L129.152 129.933Z" fill="white"/>
<path d="M96.0001 98.2C98.678 98.2822 101.323 97.567 103.624 96.1381C105.926 94.7092 107.788 92.6261 108.992 90.1333H82.9121C84.1234 92.6419 86.0006 94.7356 88.3207 96.1655C90.6408 97.5955 93.3061 98.3016 96.0001 98.2Z" fill="#F19D94"/>
<path d="M101.888 77.2001C101.896 77.8604 102.152 78.4913 102.6 78.9583C103.048 79.4253 103.654 79.6914 104.288 79.7001C104.927 79.7001 105.541 79.4378 105.996 78.9699C106.451 78.502 106.711 77.8662 106.72 77.2001C106.72 76.5282 106.463 75.8838 106.007 75.4087C105.551 74.9336 104.933 74.6667 104.288 74.6667C103.648 74.6755 103.038 74.9463 102.589 75.4204C102.139 75.8946 101.888 76.5339 101.888 77.2001Z" fill="#000444"/>
<path d="M87.6801 74.6667C87.0351 74.6667 86.4165 74.9336 85.9604 75.4087C85.5043 75.8838 85.248 76.5282 85.248 77.2001C85.2565 77.8662 85.5164 78.502 85.9716 78.9699C86.4268 79.4378 87.0406 79.7001 87.6801 79.7001C88.314 79.6914 88.9197 79.4253 89.368 78.9583C89.8163 78.4913 90.0718 77.8604 90.0801 77.2001C90.0843 76.869 90.0253 76.5403 89.9066 76.2331C89.7879 75.9259 89.6118 75.6464 89.3885 75.4107C89.1652 75.175 88.8992 74.9879 88.6059 74.8602C88.3127 74.7325 87.998 74.6667 87.6801 74.6667Z" fill="#000444"/>
<path d="M95.9998 85.3668C96.2403 85.3581 96.4682 85.2524 96.6354 85.0721C96.8025 84.8917 96.8959 84.6508 96.8958 84.4001V81.0667C96.8958 80.8192 96.8014 80.5818 96.6334 80.4068C96.4653 80.2318 96.2374 80.1334 95.9998 80.1334C95.8794 80.1289 95.7595 80.1498 95.6471 80.1946C95.5346 80.2395 95.432 80.3076 95.3454 80.3947C95.2588 80.4818 95.1899 80.5862 95.1429 80.7017C95.0959 80.8172 95.0717 80.9413 95.0718 81.0667V84.4001C95.0718 84.6564 95.1695 84.9023 95.3436 85.0836C95.5176 85.2649 95.7536 85.3668 95.9998 85.3668Z" fill="#F19D94"/>
<path d="M118.432 126.667L96 141.4L121.696 154.467L129.408 129.233L118.432 126.667Z" fill="#ECECEC"/>
<path d="M73.568 126.667L62.624 129.233L70.304 154.467L96 141.4L73.568 126.667Z" fill="#ECECEC"/>
<path d="M60.0639 129.333C60.0639 129.333 31.7758 136 27.7438 140.667C23.929 144.421 21.4571 149.418 20.7359 154.833C20.5439 156.922 20.3839 159.144 20.2559 161.5L21.8878 163.667C32.9314 177.594 47.3818 188.155 63.7119 194.233L60.0639 129.333Z" fill="#2C3B60"/>
<path d="M171.232 154.833C170.511 149.418 168.039 144.421 164.224 140.667C160.192 136 131.904 129.333 131.904 129.333C131.904 129.333 131.904 130.3 131.904 130.9C131.904 131.5 131.904 131.233 131.904 131.4C131.648 138.067 130.656 154.067 129.44 173.8C129.024 180.467 128.608 187.133 128.192 194.233C144.582 188.169 159.082 177.581 170.144 163.6C170.688 162.9 171.232 162.133 171.776 161.4C171.584 159.133 171.424 156.933 171.232 154.833Z" fill="#2C3B60"/>
<path d="M117.408 73.8333H115.424C114.873 72.6704 114.021 71.6917 112.963 71.0082C111.905 70.3247 110.685 69.9638 109.44 69.9667H103.968C102.917 69.9429 101.877 70.189 100.94 70.6832C100.002 71.1773 99.1957 71.9043 98.5918 72.8C97.8033 72.2925 96.8947 72.0237 95.9678 72.0237C95.0409 72.0237 94.1323 72.2925 93.3438 72.8C92.7334 71.9193 91.9302 71.2028 91.0008 70.7101C90.0714 70.2173 89.0426 69.9625 87.9998 69.9667H82.5278C81.2831 69.9638 80.0625 70.3247 79.0047 71.0082C77.947 71.6917 77.0944 72.6704 76.5438 73.8333H74.5598C74.2034 73.8333 73.8615 73.9808 73.6095 74.2434C73.3574 74.5059 73.2158 74.862 73.2158 75.2333C73.2158 75.6046 73.3574 75.9607 73.6095 76.2233C73.8615 76.4858 74.2034 76.6333 74.5598 76.6333H75.8718C75.8247 77.1098 75.8247 77.5902 75.8718 78.0667L76.3198 80.7667C77.1838 86.1333 83.4878 88.2667 88.2558 86.5333C90.2428 85.6613 91.9137 84.1563 93.0289 82.2341C94.1442 80.3119 94.6465 78.0713 94.4638 75.8334C94.4638 74.4667 97.3758 74.5 97.3758 75.8334C97.1932 78.0713 97.6954 80.3119 98.8107 82.2341C99.9259 84.1563 101.597 85.6613 103.584 86.5333C108.384 88.2667 114.656 86.1 115.52 80.7667L115.936 78.0667C115.998 77.5911 115.998 77.1089 115.936 76.6333H117.248C117.604 76.6333 117.946 76.4858 118.198 76.2233C118.45 75.9607 118.592 75.6046 118.592 75.2333C118.592 74.862 118.45 74.5059 118.198 74.2434C117.946 73.9808 117.604 73.8333 117.248 73.8333H117.408ZM87.4558 83.8333C84.2558 85.0333 79.5838 83.8333 79.0398 80.2333L78.5918 77.5333C78.4993 76.9386 78.5316 76.3301 78.6867 75.7496C78.8417 75.1692 79.1158 74.6308 79.4899 74.1713C79.8641 73.7119 80.3294 73.3424 80.8539 73.0884C81.3783 72.8344 81.9495 72.7019 82.5278 72.7H87.9998C93.8558 72.7667 92.5118 82.1 87.4558 83.9V83.8333ZM113.376 77.5333L112.928 80.2333C112.384 83.5667 107.84 85.0333 104.512 83.8333C99.5518 82.0333 98.1118 72.7 103.968 72.7H109.44C110.018 72.7019 110.589 72.8344 111.114 73.0884C111.638 73.3424 112.104 73.7119 112.478 74.1713C112.852 74.6308 113.126 75.1692 113.281 75.7496C113.436 76.3301 113.468 76.9386 113.376 77.5333Z" fill="#402118"/>
</svg>
