<svg width="192" height="200" viewBox="0 0 192 200" fill="none" xmlns="http://www.w3.org/2000/svg">
<path d="M96 200C149.019 200 192 155.228 192 100C192 44.7715 149.019 0 96 0C42.9807 0 0 44.7715 0 100C0 155.228 42.9807 200 96 200Z" fill="#4588F7"/>
<path d="M119.232 126.867L120.512 102.633H71.52L72.32 118.2L118.176 126.833L119.232 126.867Z" fill="#F9D6CF"/>
<path d="M72.3198 118.2L72.7678 126.867L73.5678 126.667L95.9998 141.4L118.176 126.834L72.3198 118.2Z" fill="#FBE6E3"/>
<path d="M95.9039 30.6665C87.9425 30.6929 80.3144 33.999 74.6848 39.8632C69.0552 45.7274 65.8813 53.6733 65.856 61.9665V66.9331H125.92V61.9665C125.903 53.6764 122.736 45.7303 117.112 39.8652C111.487 34.0001 103.862 30.6929 95.9039 30.6665V30.6665Z" fill="#000444"/>
<path d="M71.5839 103.067C74.355 107.092 78.0055 110.374 82.2342 112.64C86.4629 114.906 91.1483 116.092 95.9038 116.1C100.738 116.109 105.503 114.901 109.793 112.58C114.083 110.258 117.771 106.892 120.544 102.767C123.795 97.9224 125.639 92.2062 125.856 86.3001C125.856 85.8334 125.856 85.4001 125.856 84.9334V60.4001H99.5519C93.1519 60.4001 87.6159 58.9668 86.2719 52.6001H81.4399C77.3459 52.6176 73.4243 54.3195 70.5294 57.3351C67.6345 60.3506 66.0008 64.4355 65.9839 68.7001V68.7001C64.6935 68.5441 63.3865 68.7562 62.2029 69.314C61.0192 69.8718 60.0034 70.7541 59.2639 71.8668C58.2798 73.1866 57.6693 74.7666 57.5014 76.4286C57.3335 78.0906 57.6147 79.7683 58.3135 81.2726C59.0123 82.7769 60.1008 84.0479 61.4561 84.9421C62.8114 85.8363 64.3797 86.3182 65.9839 86.3334V86.3334C66.2374 92.424 68.2073 98.3018 71.6479 103.233" fill="#FBE6E3"/>
<path d="M125.856 86.1668H126.272C128.515 86.1668 130.668 85.2407 132.257 83.5913C133.846 81.942 134.744 79.7037 134.752 77.3668C134.752 75.024 133.859 72.7772 132.268 71.1207C130.678 69.4641 128.521 68.5334 126.272 68.5334H125.92C125.92 68.5334 125.888 85.7001 125.856 86.1668Z" fill="#F9D6CF"/>
<path d="M129.184 129.933L121.696 154.467L96.0961 141.4L70.4961 154.467L63.008 129.933L60.2881 130.9C60.2881 130.9 63.488 187.2 64.032 194.233C74.3042 198.045 85.1275 199.996 96.032 200C106.99 200.014 117.869 198.064 128.192 194.233C128.608 187.167 131.904 130.9 131.936 130.9L129.184 129.933Z" fill="white"/>
<path d="M95.9998 98.2001C98.7045 98.3147 101.383 97.6148 103.716 96.1841C106.049 94.7534 107.936 92.6527 109.152 90.1334H83.1357C84.3308 92.6054 86.173 94.6746 88.4493 96.102C90.7257 97.5294 93.3434 98.2568 95.9998 98.2001Z" fill="#F19D94"/>
<path d="M101.92 77.2001C101.928 77.8604 102.184 78.4913 102.632 78.9583C103.081 79.4253 103.686 79.6914 104.32 79.7001C104.96 79.7001 105.573 79.4378 106.029 78.9699C106.484 78.502 106.744 77.8662 106.752 77.2001C106.752 76.5282 106.496 75.8838 106.04 75.4087C105.584 74.9336 104.965 74.6667 104.32 74.6667C104.002 74.6667 103.688 74.7325 103.394 74.8602C103.101 74.9879 102.835 75.175 102.612 75.4107C102.388 75.6464 102.212 75.9259 102.094 76.2331C101.975 76.5403 101.916 76.869 101.92 77.2001Z" fill="#000444"/>
<path d="M87.7122 74.6667C87.0672 74.6667 86.4487 74.9336 85.9926 75.4087C85.5365 75.8838 85.2803 76.5282 85.2803 77.2001C85.2887 77.8662 85.5486 78.502 86.0038 78.9699C86.459 79.4378 87.0727 79.7001 87.7122 79.7001C88.3462 79.6914 88.9518 79.4253 89.4001 78.9583C89.8484 78.4913 90.1039 77.8604 90.1122 77.2001C90.1123 76.5339 89.8605 75.8946 89.4113 75.4204C88.9621 74.9463 88.3517 74.6755 87.7122 74.6667V74.6667Z" fill="#000444"/>
<path d="M96.0001 85.3666C96.2462 85.3666 96.4822 85.2648 96.6563 85.0835C96.8303 84.9022 96.928 84.6563 96.928 84.3999V81.0666C96.9281 80.9412 96.904 80.817 96.8569 80.7016C96.8099 80.5861 96.741 80.4817 96.6544 80.3946C96.5678 80.3074 96.4652 80.2394 96.3527 80.1945C96.2403 80.1496 96.1204 80.1288 96.0001 80.1333C95.7625 80.1333 95.5345 80.2316 95.3665 80.4067C95.1985 80.5817 95.104 80.8191 95.104 81.0666V84.3999C95.1039 84.6506 95.1973 84.8916 95.3645 85.0719C95.5316 85.2523 95.7596 85.358 96.0001 85.3666Z" fill="#F19D94"/>
<path d="M118.432 126.667L96 141.4L121.696 154.467L129.408 129.233L118.432 126.667Z" fill="#ECECEC"/>
<path d="M73.568 126.667L62.624 129.233L70.304 154.467L96 141.4L73.568 126.667Z" fill="#ECECEC"/>
<path d="M60.0961 129.333C60.0961 129.333 31.8081 136 27.7761 140.667C23.9613 144.421 21.4893 149.418 20.7681 154.834C20.5761 156.922 20.4161 159.145 20.2881 161.5L21.92 163.667C32.9818 177.648 47.4822 188.236 63.8721 194.3L60.0961 129.333Z" fill="#2C3B60"/>
<path d="M171.264 154.834C170.543 149.418 168.071 144.421 164.256 140.667C160.224 136 131.936 129.333 131.936 129.333C131.936 129.333 131.936 130.3 131.936 130.9C131.919 131.066 131.919 131.234 131.936 131.4C131.68 138.067 130.688 154.067 129.472 173.8C129.056 180.467 128.64 187.134 128.224 194.234C144.608 188.158 159.106 177.572 170.176 163.6C170.72 162.9 171.264 162.134 171.808 161.4C171.616 159.134 171.456 156.934 171.264 154.834Z" fill="#2C3B60"/>
</svg>
