<svg width="360" height="466" viewBox="0 0 360 466" fill="none" xmlns="http://www.w3.org/2000/svg">
<path fill-rule="evenodd" clip-rule="evenodd" d="M389.182 352.742C384.359 333.067 369.129 317.729 349.434 312.713C337.983 309.797 324.566 306.767 311.591 303.837C293.301 299.705 274.389 295.433 260.114 291.311C247.866 287.772 239.312 276.366 239.312 263.571V235.978L242.638 232.246C252.143 221.586 258.561 208.542 261.198 194.526L261.499 192.929L263.087 192.585C266.358 191.876 272.017 189.623 273.163 182.504C275.308 169.191 277.155 162.05 278.503 156.835C279.994 151.064 280.891 147.588 280.891 141.04C280.891 135.917 280.052 129.328 276.057 127.028C275.673 126.806 275.047 126.51 274.237 126.35L271.849 125.878L272.305 123.488C273.101 119.318 273.569 114.925 273.697 110.431C274.633 77.3655 264.141 47.8355 244.152 27.2807C227.044 9.68843 204.262 -0.000297546 180 -0.000297546C155.739 -0.000297546 132.957 9.68843 115.85 27.2807C95.8624 47.835 85.369 77.3651 86.3044 110.431C86.4318 114.923 86.8998 119.316 87.6965 123.488L88.1527 125.878L85.7644 126.35C85.1147 126.478 84.5022 126.706 83.9441 127.027C79.9491 129.328 79.1102 135.917 79.1102 141.04C79.1102 147.587 80.0079 151.063 81.4946 156.822C82.8499 162.068 84.6982 169.225 86.8371 182.504C87.9832 189.623 93.6422 191.876 96.9134 192.585L98.5015 192.929L98.8024 194.525C101.44 208.541 107.857 221.584 117.363 232.246L120.689 235.976L120.69 263.571C120.69 276.366 112.136 287.773 99.8877 291.311C85.5959 295.437 66.6922 299.707 48.4117 303.836C35.4238 306.77 21.9939 309.804 10.5671 312.713C-9.12799 317.729 -24.3591 333.067 -29.1822 352.742L-56.3758 463.679C-56.5972 464.585 -56.0401 465.503 -55.1336 465.726C-54.6965 465.834 -54.2428 465.763 -53.8567 465.53C-53.4686 465.295 -53.1957 464.923 -53.0874 464.482L-25.8943 353.548C-21.3702 335.088 -7.0793 320.698 11.402 315.993C22.7499 313.103 36.1181 310.083 49.0468 307.162L49.1575 307.137C67.4909 302.996 86.449 298.713 100.828 294.561C114.515 290.609 124.075 277.864 124.075 263.571L124.074 235.332C124.074 234.917 123.921 234.517 123.644 234.206L119.889 229.994C110.101 219.016 103.791 205.527 101.639 190.985C101.532 190.261 100.997 189.54 100.044 189.54H100.037C98.1149 189.656 91.2652 188.715 90.1784 181.966C88.0179 168.546 86.1481 161.302 84.7815 156.012C83.3536 150.487 82.4952 147.166 82.4952 141.04C82.4952 135.113 83.5908 131.194 85.5812 129.991C86.6641 129.328 88.1223 129.52 89.9172 130.56C90.5184 130.91 91.2608 130.859 91.8076 130.431C92.3559 130.002 92.5852 129.294 92.3922 128.628C91.2867 124.813 89.9201 118.543 89.6884 110.335C88.7789 78.1908 98.9312 49.5321 118.277 29.6389C134.742 12.7079 156.663 3.38356 180 3.38356C203.338 3.38356 225.259 12.7079 241.725 29.6389C261.071 49.5326 271.224 78.1913 270.313 110.335C270.081 118.551 268.714 124.816 267.609 128.626C267.415 129.294 267.644 130.003 268.191 130.431C268.739 130.859 269.483 130.911 270.082 130.562C271.87 129.526 273.325 129.332 274.41 129.985C276.392 131.127 277.507 135.062 277.507 141.04C277.507 147.165 276.648 150.487 275.225 155.989C273.858 161.279 271.986 168.524 269.822 181.966C268.93 187.509 264.022 189.511 260.091 189.542L260.064 189.542L260.038 189.542C260.032 189.542 260.025 189.541 260.019 189.541C259.234 189.541 258.477 190.198 258.361 190.985C256.209 205.528 249.899 219.017 240.112 229.994L236.356 234.206C236.079 234.517 235.926 234.916 235.926 235.332V263.571C235.926 277.864 245.486 290.609 259.174 294.561C273.559 298.715 292.515 302.997 310.845 307.137L310.995 307.17C323.91 310.089 337.264 313.106 348.6 315.993C367.08 320.699 381.371 335.089 385.894 353.548L413.088 464.484C413.306 465.374 414.198 465.955 415.135 465.726C416.041 465.503 416.597 464.585 416.375 463.678L389.182 352.742Z" fill="white"/>
</svg>
